<svg xmlns="http://www.w3.org/2000/svg" width="24" height="24" viewBox="0 0 24 24"><defs><style>.a{fill:rgba(255,255,255,0);}.b{fill:#fff;}</style></defs><g transform="translate(-2 4)"><rect class="a" width="24" height="24" transform="translate(2 -4)"/><g transform="translate(2 -4)"><path class="b" d="M23.5,14.772c0,.067,0,.133-.069.133a.149.149,0,0,1-.138-.133c-.207-.266-10.675-11.323-11.157-11.723-.207-.2-.275-.133-.482.067C11.588,3.182.707,14.639.569,14.838c-.069.067-.138.067-.138-.067a10.912,10.912,0,0,1-.413-3.663A10.341,10.341,0,0,1,1.533,6.046,11.451,11.451,0,0,1,9.384.318,11.829,11.829,0,0,1,20.61,3.582a10.907,10.907,0,0,1,3.237,6.261,8.818,8.818,0,0,1,.138,1.932A15.1,15.1,0,0,1,23.5,14.772Z" transform="translate(0 0)"/><path class="b" d="M.08,9.109c-.069-.067-.138-.133,0-.266S8.275.25,8.482.05c.069-.067.138-.067.138,0,.275.333,8.2,8.726,8.4,8.859.069.067.069.133-.069.133a9.34,9.34,0,0,1-1.515,1.266,11.776,11.776,0,0,1-5.923,2.131,6.121,6.121,0,0,1-1.1.067A11.907,11.907,0,0,1,.08,9.109Z" transform="translate(3.451 10.925)"/></g></g></svg>