<svg xmlns="http://www.w3.org/2000/svg" width="83.52" height="23.702" viewBox="0 0 83.52 23.702"><defs><style>.a{fill:#fff;}</style></defs><g transform="translate(0)"><g transform="translate(0)"><path class="a" d="M11.923,23.7l-.178,0a11.66,11.66,0,0,1-4.474-.9,11.541,11.541,0,0,1-3.776-2.537.2.2,0,0,1-.079-.129.212.212,0,0,1,.079-.14c.061-.06,1.638-1.749,3.465-3.705l.008-.009.013-.014C9.193,13.9,11.7,11.212,11.813,11.1a.149.149,0,0,1,.094-.05c.027,0,.043.018.043.05.059.073,8.071,8.8,8.319,8.96.037.037.052.071.042.1s-.049.04-.11.04a9.3,9.3,0,0,1-1.5,1.28,11.481,11.481,0,0,1-5.863,2.155A5.99,5.99,0,0,1,11.923,23.7Zm38.618-2.833H48.768c-.136,0-.136-.066-.136-.135V7.328c0-.134.066-.134.136-.134h1.909c.136,0,.136.065.136.134v1.55a4.094,4.094,0,0,1,1.841-1.617,4.732,4.732,0,0,1,3.886.121A4.636,4.636,0,0,1,59,10.36a5.92,5.92,0,0,1-.409,4.446,4.261,4.261,0,0,1-3.41,2.358,4.42,4.42,0,0,1-2.454-.269,4.3,4.3,0,0,1-1.773-1.28.35.35,0,0,1-.068-.1.351.351,0,0,0-.068-.1V20.6C50.813,20.869,50.813,20.869,50.541,20.869Zm3.313-12.22h0a2.844,2.844,0,0,0-1.949.766,3.052,3.052,0,0,0-1.091,2.493,3.794,3.794,0,0,1,.136.673,3.08,3.08,0,0,0,3,2.695h.038a3.032,3.032,0,0,0,2.826-1.887,3.347,3.347,0,0,0,.136-2.155,3.05,3.05,0,0,0-1.977-2.358,2.844,2.844,0,0,0-1.119-.228ZM42.36,17.4a6.307,6.307,0,0,1-3.75-1.243.19.19,0,0,1-.1-.111.3.3,0,0,1,.035-.225,4.662,4.662,0,0,0,.372-.717,6.758,6.758,0,0,1,.31-.631,5.569,5.569,0,0,1,.776.316,8,8,0,0,0,.86.358,4.1,4.1,0,0,0,2.182.269,2.009,2.009,0,0,0,.682-.2.966.966,0,0,0,.542-.7.956.956,0,0,0-.27-.844,1.621,1.621,0,0,0-.75-.4,9.72,9.72,0,0,0-1.1-.386c-.236-.072-.459-.141-.675-.221l-1.022-.4a2.68,2.68,0,0,1,.136-4.85,5.827,5.827,0,0,1,2.157-.412c.1,0,.2,0,.3.008a7.585,7.585,0,0,1,2.932.809c.168.066.253.1.272.157s-.032.144-.135.315L45.5,9.484a.45.45,0,0,0-.037.043c-.024.03-.041.052-.077.052a.216.216,0,0,1-.09-.028,6.146,6.146,0,0,0-2.659-.809,1.8,1.8,0,0,0-1.023.135A.879.879,0,0,0,41,9.618a.768.768,0,0,0,.409.876,5.379,5.379,0,0,0,1.432.606,8.674,8.674,0,0,1,1.7.606,3.776,3.776,0,0,1,.954.606,2.571,2.571,0,0,1,.886,2.358,2.688,2.688,0,0,1-1.908,2.359A6.269,6.269,0,0,1,42.36,17.4Zm-11.12-.184a3.979,3.979,0,0,1-1.562-.317A3.073,3.073,0,0,1,27.9,15.133a3.021,3.021,0,0,1,.139-2.483,2.912,2.912,0,0,1,1.909-1.415,6.29,6.29,0,0,1,1.569-.2H34.45c.081,0,.144-.025.159-.063a.066.066,0,0,0-.023-.072,2.45,2.45,0,0,0-.068-.741,1.734,1.734,0,0,0-1.5-1.28,4.656,4.656,0,0,0-2.863.336,3.866,3.866,0,0,0-.886.539.125.125,0,0,1-.085.044c-.043,0-.082-.036-.12-.111a12.627,12.627,0,0,1-.751-1.281c-.036-.036-.052-.07-.042-.094s.048-.04.11-.04a7.943,7.943,0,0,1,4.276-1.244c.233,0,.47.01.7.031a3.793,3.793,0,0,1,1.5.4,3.355,3.355,0,0,1,1.909,2.627,17.993,17.993,0,0,1,.068,1.954v4.985c0,.134-.066.134-.136.134H34.859c-.136,0-.136-.065-.136-.134V15.952a5.606,5.606,0,0,1-2.863,1.212A4.015,4.015,0,0,1,31.239,17.212Zm.484-4.561a4.666,4.666,0,0,0-1.3.2,1.136,1.136,0,0,0-.75.809,1.5,1.5,0,0,0,1.09,1.751,3.132,3.132,0,0,0,2.455-.269,1.913,1.913,0,0,0,1.227-1.954,1.171,1.171,0,0,0,.068-.4c0-.134-.069-.134-.136-.134Zm47.013,4.54a6.124,6.124,0,0,1-2.08-.363,4.47,4.47,0,0,1-3-3.639A5.024,5.024,0,0,1,74,10.023a4.713,4.713,0,0,1,3.681-2.829,6.662,6.662,0,0,1,2.591.067A3.789,3.789,0,0,1,83.2,10.023a6.976,6.976,0,0,1,.273,2.9c0,.135-.066.135-.136.135H79.655a22.47,22.47,0,0,0-3.066-.211c-.2,0-.411,0-.615.008a.166.166,0,0,0-.151.058.148.148,0,0,0,.014.144,3.122,3.122,0,0,0,3.045,2.358h.022l.127,0a3.8,3.8,0,0,0,2.668-1.08.13.13,0,0,1,.1-.05.129.129,0,0,1,.1.05c.17.168.326.339.476.5s.308.338.479.507a.128.128,0,0,1,.05.1.13.13,0,0,1-.05.1,6.011,6.011,0,0,1-2.728,1.482A6.155,6.155,0,0,1,78.736,17.19Zm-.081-8.5a2.845,2.845,0,0,0-1.68.544,2.809,2.809,0,0,0-1.137,1.93c-.027.052-.033.085-.022.1s.076.03.158.03h5.454c.136,0,.136-.068.136-.134a3.188,3.188,0,0,0-.477-1.415,2.562,2.562,0,0,0-1.909-1.011A2.879,2.879,0,0,0,78.654,8.695ZM63.585,17.1H61.723c-.136,0-.136,0-.136-.135v-9.7c0-.135.066-.135.136-.135h1.841c.136,0,.136.069.136.135l.068,9.634a.181.181,0,0,1-.052.15A.185.185,0,0,1,63.585,17.1Zm5.593-.135H67.314c-.136,0-.136-.065-.136-.134v-9.7c0-.134.066-.134.136-.134h1.909c.136,0,.136.065.136.134V8.742a3.846,3.846,0,0,1,.273-.336,3.733,3.733,0,0,1,2.659-1.414.6.6,0,0,0,.146-.028.7.7,0,0,1,.177-.032.208.208,0,0,1,.154.06.313.313,0,0,1,.077.3.815.815,0,0,0-.009.1V8.81c0,.135-.066.135-.136.135s-.169-.01-.254-.01a3.32,3.32,0,0,0-1.724.481,2.768,2.768,0,0,0-1.363,2.426c-.046,1.125-.03,2.234-.015,3.305.007.531.015,1.077.015,1.612a.183.183,0,0,1-.053.15A.185.185,0,0,1,69.178,16.963ZM23.2,15.075h0a.15.15,0,0,1-.136-.134C23.012,14.872,12.632,3.6,12.018,3.084c-.087-.086-.148-.122-.205-.122-.08,0-.152.071-.272.189C11.449,3.242.7,14.806.563,15.008a.128.128,0,0,1-.08.044.045.045,0,0,1-.041-.026.181.181,0,0,1-.016-.085,11.237,11.237,0,0,1-.409-3.706,10.653,10.653,0,0,1,1.5-5.121A11.316,11.316,0,0,1,9.291.322,11.561,11.561,0,0,1,20.4,3.623a11.175,11.175,0,0,1,3.2,6.332,9.062,9.062,0,0,1,.136,1.953,15.569,15.569,0,0,1-.477,3.032C23.268,15.01,23.268,15.075,23.2,15.075ZM62.637,5.442a1.255,1.255,0,0,1-.888-.363,1.235,1.235,0,0,1-.367-.917,1.353,1.353,0,0,1,1.3-1.347H62.7a1.282,1.282,0,0,1,.922.391,1.256,1.256,0,0,1,.348.956,1.281,1.281,0,0,1-.379.905,1.316,1.316,0,0,1-.916.375Z" transform="translate(0)"/></g></g></svg>