<svg xmlns="http://www.w3.org/2000/svg" width="16" height="13.954" viewBox="0 0 16 13.954"><defs><style>.a{fill:#f25195;}</style></defs><path class="a" d="M461.668,106.512v5.271a2.989,2.989,0,0,0,0-5.271Zm0,0" transform="translate(-447.247 -103.191)"/><path class="a" d="M5.04,101.18V95.2H1.73A1.732,1.732,0,0,0,0,96.93v2.52a1.732,1.732,0,0,0,1.73,1.73Zm0,0" transform="translate(0 -92.233)"/><path class="a" d="M196.75,0a1.53,1.53,0,0,0-.626.142l-5.757,2.579a.465.465,0,0,1,.009.093V9.086a.466.466,0,0,1-.009.093l5.756,2.579a1.53,1.53,0,0,0,.626.142h0a1.135,1.135,0,0,0,.87-.385,1.376,1.376,0,0,0,.316-.924V1.309A1.2,1.2,0,0,0,196.75,0Zm0,0" transform="translate(-184.438)"/><path class="a" d="M32.889,312.787a2.665,2.665,0,0,1-.721-.1l.517,2.585a2.065,2.065,0,0,0,1.968,1.614,1.732,1.732,0,0,0,1.73-1.73V312.8l-.018-.008Zm0,0" transform="translate(-31.159 -302.932)"/></svg>