<svg xmlns="http://www.w3.org/2000/svg" width="16" height="16" viewBox="0 0 16 16"><defs><style>.a{fill:none;}.b,.c{fill:#01d167;}.b{stroke:rgba(0,0,0,0);stroke-miterlimit:10;}</style></defs><path class="a" d="M0,0H16V16H0Z"/><path class="b" d="M7.333,10A7.822,7.822,0,0,1,2.849,8.6,7.9,7.9,0,0,1,0,5,7.879,7.879,0,0,1,14.666,5a7.9,7.9,0,0,1-2.848,3.6A7.824,7.824,0,0,1,7.333,10Zm0-8.334A3.333,3.333,0,1,0,10.667,5,3.337,3.337,0,0,0,7.333,1.668Z" transform="translate(0.667 2.999)"/><path class="c" d="M2,0A2,2,0,1,0,4,2,2,2,0,0,0,2,0Z" transform="translate(6 6)"/></svg>