<svg xmlns="http://www.w3.org/2000/svg" width="32" height="32" viewBox="0 0 32 32"><defs><style>.a{fill:#325baf;}.b{fill:#9ac0fa;stroke:#325baf;stroke-linecap:round;stroke-linejoin:round;stroke-width:0.25px;}.c{fill:#f1f3f4;}</style></defs><g transform="translate(213 -305)"><circle class="a" cx="16" cy="16" r="16" transform="translate(-213 305)"/><g transform="translate(-206 222.078)"><g transform="translate(0 90.922)"><path class="b" d="M40.53,166.985a.219.219,0,0,0-.054-.159l-1.737-1.977a.219.219,0,0,0-.31-.02,9.039,9.039,0,0,0-1.97,2.46.219.219,0,0,0,.087.3l2.309,1.262a.219.219,0,0,0,.3-.087,5.976,5.976,0,0,1,1.3-1.626A.219.219,0,0,0,40.53,166.985Z" transform="translate(-35.357 -162.636)"/><path class="b" d="M160.092,96.836a.219.219,0,0,0,.3.091,5.905,5.905,0,0,1,1.979-.637.219.219,0,0,0,.188-.247l-.354-2.608a.22.22,0,0,0-.247-.188,8.964,8.964,0,0,0-3,.967.219.219,0,0,0-.091.3Z" transform="translate(-154.166 -93.207)"/><path class="b" d="M3.123,311.445l-2.54-.689a.219.219,0,0,0-.269.154A9.059,9.059,0,0,0,0,313.281c0,.138,0,.275.01.422a.219.219,0,0,0,.219.209h.01l2.629-.121a.219.219,0,0,0,.209-.229c0-.1-.007-.19-.007-.28a5.986,5.986,0,0,1,.208-1.567A.219.219,0,0,0,3.123,311.445Z" transform="translate(0 -304.321)"/><path class="b" d="M322.6,92.773a8.969,8.969,0,0,0-3.039-.85.219.219,0,0,0-.239.2l-.254,2.619a.219.219,0,0,0,.2.239,5.908,5.908,0,0,1,2,.56.219.219,0,0,0,.293-.1l1.143-2.371A.219.219,0,0,0,322.6,92.773Z" transform="translate(-309.693 -91.922)"/><path class="b" d="M434.723,159.96a.219.219,0,0,0-.024-.166,9.042,9.042,0,0,0-2.062-2.382.219.219,0,0,0-.308.032l-1.661,2.042a.219.219,0,0,0,.032.309,5.978,5.978,0,0,1,1.364,1.576.219.219,0,0,0,.3.076l2.259-1.35A.22.22,0,0,0,434.723,159.96Z" transform="translate(-417.973 -155.441)"/><path class="b" d="M501.419,299.883a.219.219,0,0,0-.275-.144l-2.511.787a.219.219,0,0,0-.144.275,5.968,5.968,0,0,1,.272,1.786c0,.09,0,.181-.007.28a.219.219,0,0,0,.209.229l2.629.121h.01a.219.219,0,0,0,.219-.209c.007-.146.01-.284.01-.422A9.035,9.035,0,0,0,501.419,299.883Z" transform="translate(-483.831 -293.626)"/><path class="c" d="M173.745,310.747c-.038,0-.075,0-.113,0l-3.562-2.1a.226.226,0,0,0-.314.3l1.943,3.642a2.093,2.093,0,0,0-.011.212,2.057,2.057,0,1,0,2.057-2.057Z" transform="matrix(0.985, 0.174, -0.174, 0.985, -106.99, -325.533)"/></g></g></g></svg>