<svg xmlns="http://www.w3.org/2000/svg" width="66.591" height="22.573" viewBox="0 0 66.591 22.573"><defs><style>.a{fill:#fff;}</style></defs><path class="a" d="M38.35,22.573a14.824,14.824,0,0,1-6.134-1.232l.808-4.9a9.067,9.067,0,0,0,5.3,1.528c2.3,0,3.671-.782,3.671-2.092,0-1.243-1.328-1.976-2.866-2.826A13.568,13.568,0,0,1,36,10.923a5.026,5.026,0,0,1-1.529-3.7,6.431,6.431,0,0,1,1.043-3.654,6.946,6.946,0,0,1,2.5-2.2A12.382,12.382,0,0,1,43.574,0,15.239,15.239,0,0,1,48.46.95l-.775,4.684a9.415,9.415,0,0,0-4.357-1.028,5.285,5.285,0,0,0-2.288.426,1.527,1.527,0,0,0-.971,1.412c0,.979,1.224,1.668,2.64,2.465,2.2,1.239,4.944,2.782,4.944,6.2a6.635,6.635,0,0,1-3.261,5.78A11.7,11.7,0,0,1,38.35,22.573ZM52.924,22.2H47.26l8.1-20.184A2.533,2.533,0,0,1,57.873.389H62.24L66.591,22.2H61.6l-.638-3.239H54.057L52.924,22.2ZM58.477,6.321l-2.854,8.163h4.461ZM28.868,22.2H23.434L26.83.389h5.434L28.868,22.2Zm-12.8,0H10.4L5.687,3.256c-.134-.085-.257-.16-.375-.231L5.02,2.852c-.172-.1-.34-.194-.5-.281-.1-.054-.2-.1-.294-.155s-.208-.109-.311-.16-.185-.093-.3-.149c-.093-.046-.186-.089-.277-.132s-.2-.091-.288-.134-.175-.077-.261-.114c-.187-.081-.343-.148-.495-.209l-.119-.047-.1-.039-.257-.1-.2-.075-.227-.08c-.062-.022-.125-.044-.184-.063s-.135-.047-.2-.066L.842.994C.751.965.667.94.59.917L.543.9.438.873.33.843.22.814.182.8.15.8.071.776.05.771l-.014,0A.325.325,0,0,1,0,.759L.1.389H8.664a2.371,2.371,0,0,1,2.577,1.965l1.828,9.807.614,3.229,5.18-15h5.848L16.066,22.2Z"/></svg>